<mxfile host="app.diagrams.net" modified="2024-04-04T23:12:16.630Z" agent="Mozilla/5.0 (Macintosh; Intel Mac OS X 10_15_7) AppleWebKit/537.36 (KHTML, like Gecko) Chrome/123.0.0.0 Safari/537.36" version="24.0.8" etag="SzKG-5U3k0swDjVpcM3P" type="github">
  <diagram name="PÃ¡gina-1" id="kMba5wV44D9tgQYGtTS0">
    <mxGraphModel>
      <root>
        <mxCell id="0" />
        <mxCell id="1" parent="0" />
      </root>
    </mxGraphModel>
  </diagram>
</mxfile>
